<svg xmlns="http://www.w3.org/2000/svg" width="14.286" height="12.5" viewBox="0 0 14.286 12.5">
  <path id="Icon_awesome-camera" data-name="Icon awesome-camera" d="M14.286,5.375v8.036a1.34,1.34,0,0,1-1.339,1.339H1.339A1.34,1.34,0,0,1,0,13.411V5.375A1.34,1.34,0,0,1,1.339,4.036H3.795l.343-.918A1.337,1.337,0,0,1,5.391,2.25h3.5a1.337,1.337,0,0,1,1.253.868l.346.918h2.455A1.34,1.34,0,0,1,14.286,5.375ZM10.491,9.393a3.348,3.348,0,1,0-3.348,3.348A3.351,3.351,0,0,0,10.491,9.393Zm-.893,0A2.455,2.455,0,1,1,7.143,6.938,2.459,2.459,0,0,1,9.6,9.393Z" transform="translate(0 -2.25)" fill="#fff"/>
</svg>
